<?xml version="1.0" encoding="UTF-8" standalone="no"?>
<svg
   xmlns:dc="http://purl.org/dc/elements/1.1/"
   xmlns:cc="http://creativecommons.org/ns#"
   xmlns:rdf="http://www.w3.org/1999/02/22-rdf-syntax-ns#"
   xmlns:svg="http://www.w3.org/2000/svg"
   xmlns="http://www.w3.org/2000/svg"
   width="281.45258mm"
   height="79.970589mm"
   viewBox="0 0 281.45258 79.970589"
   version="1.1"
   id="svg8">
  <title
     id="title82">logo</title>
  <defs
     id="defs2">
    <clipPath
       clipPathUnits="userSpaceOnUse"
       id="clipPath1662">
      <rect
         style="opacity:1;fill:none;fill-opacity:1;stroke:#000000;stroke-width:0.499999;stroke-linecap:butt;stroke-linejoin:round;stroke-miterlimit:4;stroke-dasharray:none;stroke-opacity:1"
         id="rect1664"
         width="53.075073"
         height="26.537542"
         x="164.8898"
         y="95.618927" />
    </clipPath>
    <clipPath
       clipPathUnits="userSpaceOnUse"
       id="clipPath27">
      <rect
         style="fill:none;stroke:#000000;stroke-width:0.363649;stroke-linejoin:round"
         id="rect29"
         width="39.848148"
         height="19.924074"
         x="35.74844"
         y="113.76128"
         ry="2.1819015"
         rx="2.1819015" />
    </clipPath>
    <clipPath
       clipPathUnits="userSpaceOnUse"
       id="clipPath155">
      <rect
         style="fill:none;stroke:#000000;stroke-width:0.0948394;stroke-linejoin:round"
         id="rect157"
         width="9"
         height="6"
         x="1.1180849e-07"
         y="3.4545022e-07"
         rx="0.49279964"
         ry="0.65707117" />
    </clipPath>
    <filter
       style="color-interpolation-filters:sRGB"
       id="filter4996">
      <feFlood
         flood-opacity="0.498039"
         flood-color="rgb(0,0,0)"
         result="flood"
         id="feFlood4986" />
      <feComposite
         in="SourceGraphic"
         in2="flood"
         operator="in"
         result="composite1"
         id="feComposite4988" />
      <feGaussianBlur
         in="composite1"
         stdDeviation="2.2"
         result="blur"
         id="feGaussianBlur4990" />
      <feOffset
         dx="2.1"
         dy="0.5"
         result="offset"
         id="feOffset4992" />
      <feComposite
         in="SourceGraphic"
         in2="offset"
         operator="over"
         result="composite2"
         id="feComposite4994" />
    </filter>
  </defs>
  <metadata
     id="metadata5">
    <rdf:RDF>
      <cc:Work
         rdf:about="">
        <dc:format>image/svg+xml</dc:format>
        <dc:type
           rdf:resource="http://purl.org/dc/dcmitype/StillImage" />
        <dc:title>logo</dc:title>
      </cc:Work>
    </rdf:RDF>
  </metadata>
  <g
     id="layer1"
     style="display:inline"
     transform="translate(-11.578108,-51.4558)">
    <g
       clip-path="url(#s)"
       id="g917"
       transform="matrix(1.0449131,0,0,1.0449131,37.321171,92.269986)"
       style="image-rendering:auto" />
  </g>
  <g
     id="layer2"
     transform="translate(-11.578108,-51.4558)">
    <g
       id="g145">
      <g
         id="g5073"
         transform="matrix(0.54468371,0,0,0.54468371,1.4759238,45.794697)"
         style="display:inline">
        <rect
           style="fill:#ffffff;fill-opacity:0.795181;stroke:#000000;stroke-width:1.5;stroke-linecap:butt;stroke-linejoin:round;stroke-miterlimit:4;stroke-dasharray:none;stroke-opacity:1;filter:url(#filter4996)"
           id="rect872"
           width="70.176071"
           height="113.54726"
           x="45.975079"
           y="16.27412"
           rx="13.405247"
           ry="13.405247"
           transform="rotate(8.1512943)" />
        <g
           id="g168"
           transform="rotate(8.1512943,224.66252,112.20118)">
          <g
             id="g151"
             transform="matrix(6.0876763,0,0,4.5657226,40.721789,56.731508)"
             clip-path="url(#clipPath155)">
            <rect
               fill="#ffffff"
               width="9"
               height="3"
               id="rect134"
               x="0"
               y="0" />
            <rect
               fill="#d52b1e"
               y="3"
               width="9"
               height="3"
               id="rect136"
               x="0" />
            <rect
               fill="#0039a6"
               y="2"
               width="9"
               height="2"
               id="rect138"
               x="0" />
          </g>
          <rect
             style="fill:none;stroke:#000000;stroke-width:0.499999;stroke-linejoin:round"
             id="rect159"
             width="54.789085"
             height="27.394335"
             x="40.721786"
             y="56.73151"
             rx="3.0000045"
             ry="3.0000045" />
        </g>
        <g
           id="g204"
           transform="rotate(8.1512943,129.25739,-757.61038)">
          <g
             id="g1423"
             transform="matrix(1.3749476,0,0,1.3749476,113.25833,-49.957318)"
             clip-path="url(#clipPath27)">
            <g
               id="g1507"
               transform="matrix(0.75078824,0,0,0.75078824,-88.048874,41.971712)"
               clip-path="url(#clipPath1662)">
              <path
                 d="m 164.88979,95.618927 v 26.537543 h 53.07508 V 95.618927 Z"
                 fill="#012169"
                 id="path1169"
                 style="stroke-width:0.884585"
                 clip-path="none" />
              <path
                 d="m 164.88979,95.618927 53.07508,26.537543 m 0,-26.537543 -53.07508,26.537543"
                 stroke="#ffffff"
                 stroke-width="5.30751"
                 id="path1171" />
              <g
                 id="path1173"
                 clip-path="url(#t)"
                 style="opacity:1">
                <path
                   style="color:#000000;font-style:normal;font-variant:normal;font-weight:normal;font-stretch:normal;font-size:medium;line-height:normal;font-family:sans-serif;font-variant-ligatures:normal;font-variant-position:normal;font-variant-caps:normal;font-variant-numeric:normal;font-variant-alternates:normal;font-variant-east-asian:normal;font-feature-settings:normal;font-variation-settings:normal;text-indent:0;text-align:start;text-decoration:none;text-decoration-line:none;text-decoration-style:solid;text-decoration-color:#000000;letter-spacing:normal;word-spacing:normal;text-transform:none;writing-mode:lr-tb;direction:ltr;text-orientation:mixed;dominant-baseline:auto;baseline-shift:baseline;text-anchor:start;white-space:normal;shape-padding:0;shape-margin:0;inline-size:0;clip-rule:nonzero;display:inline;overflow:visible;visibility:visible;isolation:auto;mix-blend-mode:normal;color-interpolation:sRGB;color-interpolation-filters:linearRGB;solid-color:#000000;solid-opacity:1;vector-effect:none;fill:#000000;fill-opacity:1;fill-rule:nonzero;stroke:none;stroke-width:3.53834;stroke-linecap:butt;stroke-linejoin:miter;stroke-miterlimit:4;stroke-dasharray:none;stroke-dashoffset:0;stroke-opacity:1;color-rendering:auto;image-rendering:auto;shape-rendering:auto;text-rendering:auto;enable-background:accumulate;stop-color:#000000;stop-opacity:1"
                   d="m 164.88979,95.618927 53.07508,26.537543 m 0,-26.537543 -53.07508,26.537543"
                   id="path1565" />
                <path
                   style="color:#000000;font-style:normal;font-variant:normal;font-weight:normal;font-stretch:normal;font-size:medium;line-height:normal;font-family:sans-serif;font-variant-ligatures:normal;font-variant-position:normal;font-variant-caps:normal;font-variant-numeric:normal;font-variant-alternates:normal;font-variant-east-asian:normal;font-feature-settings:normal;font-variation-settings:normal;text-indent:0;text-align:start;text-decoration:none;text-decoration-line:none;text-decoration-style:solid;text-decoration-color:#000000;letter-spacing:normal;word-spacing:normal;text-transform:none;writing-mode:lr-tb;direction:ltr;text-orientation:mixed;dominant-baseline:auto;baseline-shift:baseline;text-anchor:start;white-space:normal;shape-padding:0;shape-margin:0;inline-size:0;clip-rule:nonzero;display:inline;overflow:visible;visibility:visible;isolation:auto;mix-blend-mode:normal;color-interpolation:sRGB;color-interpolation-filters:linearRGB;solid-color:#000000;solid-opacity:1;vector-effect:none;fill:#c8102e;fill-opacity:1;fill-rule:nonzero;stroke:none;stroke-linecap:butt;stroke-linejoin:miter;stroke-miterlimit:4;stroke-dasharray:none;stroke-dashoffset:0;stroke-opacity:1;color-rendering:auto;image-rendering:auto;shape-rendering:auto;text-rendering:auto;enable-background:accumulate;stop-color:#000000;stop-opacity:1"
                   d="m 165.68164,94.037109 -1.58398,3.164063 23.37304,11.685548 -23.37304,11.6875 1.58398,3.16406 25.74609,-12.87305 25.7461,12.87305 1.58203,-3.16406 -23.37305,-11.6875 23.37305,-11.685548 -1.58203,-3.164063 -25.7461,12.873051 z"
                   id="path1567" />
              </g>
              <path
                 d="M 191.42733,95.618927 V 122.15647 M 164.88979,108.8877 h 53.07508"
                 stroke="#ffffff"
                 stroke-width="8.84585"
                 id="path1175" />
              <path
                 d="M 191.42733,95.618927 V 122.15647 M 164.88979,108.8877 h 53.07508"
                 stroke="#c8102e"
                 stroke-width="5.30751"
                 id="path1177" />
            </g>
          </g>
          <rect
             style="fill:none;stroke:#000000;stroke-width:0.499999;stroke-linejoin:round"
             id="rect161"
             width="54.789112"
             height="27.394558"
             x="162.41055"
             y="106.45848"
             rx="3.0000045"
             ry="3.0000045" />
        </g>
        <g
           id="g1714"
           transform="matrix(0.07291585,0.01044407,-0.01044407,0.07291585,57.839493,65.50404)">
          <g
             id="g1657">
            <path
               d="m 43.841,281.457 c -18.585,-44.869 -18.586,-94.29 0,-139.159 15.615,-37.697 42.78,-68.384 77.674,-88.255 v 75.005 h 30 V 15.053 H 37.519 v 30 h 43.755 c -73,57.164 -102.324,158.139 -65.15,247.885 14.167,34.202 37.07,64.159 66.234,86.634 28.274,21.789 61.873,36.201 97.162,41.677 l 4.601,-29.646 C 120.778,381.774 68.338,340.598 43.841,281.457 Z"
               id="path1653" />
            <path
               d="m 407.517,292.938 c 21.651,-52.272 21.651,-109.848 0,-162.12 C 393.35,96.616 370.447,66.659 341.283,44.185 313.008,22.395 279.409,7.983 244.12,2.507 l -4.6,29.646 c 63.342,9.829 115.782,51.005 140.279,110.146 18.585,44.869 18.585,94.29 0,139.159 -15.614,37.697 -42.78,68.384 -77.673,88.255 v -75.005 h -30 v 113.995 h 113.995 v -30 h -43.625 c 28.453,-22.217 50.831,-51.508 65.021,-85.765 z"
               id="path1655" />
          </g>
          <g
             id="g1659" />
          <g
             id="g1661" />
          <g
             id="g1663" />
          <g
             id="g1665" />
          <g
             id="g1667" />
          <g
             id="g1669" />
          <g
             id="g1671" />
          <g
             id="g1673" />
          <g
             id="g1675" />
          <g
             id="g1677" />
          <g
             id="g1679" />
          <g
             id="g1681" />
          <g
             id="g1683" />
          <g
             id="g1685" />
          <g
             id="g1687" />
        </g>
      </g>
      <g
         aria-label="Cardsetta"
         id="text5081"
         style="fill:white;font-size:46.2631px;line-height:1.25;font-family:Rye;-inkscape-font-specification:Rye;stroke-width:1.15658">
        <path
           d="m 81.819762,120.48772 q 0.903576,-0.76804 1.423133,-1.98787 0.542145,-1.21983 0.542145,-2.5526 0,-1.35537 -0.519556,-2.10082 0.361431,-0.6325 1.51349,-0.6325 1.15206,0 1.761974,0.74545 0.632503,0.74545 0.632503,2.30412 0,1.53608 -0.835808,3.20769 -0.813218,1.64903 -2.304119,2.89145 -3.298053,2.71073 -8.245133,2.71073 -5.895834,0 -9.690854,-3.70467 -3.862788,-3.79502 -4.653417,-10.82032 -0.38402,-3.2077 -2.304119,-4.15645 1.061702,-0.49697 1.468311,-1.03911 0.655093,-0.92617 0.835808,-2.50743 0.203304,-1.60385 0.74545,-3.320641 0.542146,-1.716794 1.423133,-3.252874 0.903576,-1.558669 2.145993,-2.846265 1.242417,-1.310185 2.846265,-2.25894 3.38841,-2.010457 7.906291,-2.010457 4.404934,0 7.296378,2.213761 2.597781,2.010457 3.365821,5.466636 0.361431,1.716795 0.926166,2.123404 0.225894,0.180715 0.564735,0.338841 -0.677682,1.129475 -2.055636,1.242415 -0.609914,0.0904 -1.310185,-0.24848 -1.242418,2.1234 -3.501358,2.25894 -0.474378,0.0452 -0.722861,-0.18072 0.609914,-0.81321 0.564735,-1.89751 0,-0.2033 -0.06777,-0.4066 -1.039113,0.2033 -1.761974,-0.18072 -1.174649,-0.677682 -1.219827,-1.468311 0,-0.180716 0.06777,-0.361431 1.400543,0.406609 2.665549,-0.632503 0.858398,-0.700272 0.813219,-1.581259 -0.04518,-0.880986 -0.406609,-1.536079 -0.361431,-0.655093 -1.039113,-1.174649 -1.536079,-1.219828 -3.840199,-1.219828 -3.930556,0 -5.105205,3.523947 -0.38402,1.174649 -0.38402,2.755907 v 4.563056 q 0,2.55261 2.484835,3.6369 -2.484835,1.19724 -2.484835,3.90797 v 5.57958 q 0,4.29198 3.411,5.66994 1.106881,0.4292 2.439656,0.4292 1.332775,0 2.507424,-0.36143 1.197238,-0.36143 2.100814,-1.12947 z m -15.247847,-2.07823 q 0.338841,-0.13554 0.338841,-0.47438 0,-0.49696 -0.474378,-1.55867 -1.197238,-2.73331 -1.197238,-9.98451 0,-5.28592 1.265006,-8.990585 0.158126,-0.564735 0.158126,-0.858397 0,-0.293662 -0.293662,-0.38402 -1.061702,1.332775 -1.51349,2.64296 -0.835808,2.394482 -1.332775,6.483162 -0.06777,0.58732 -1.332775,1.10688 1.265007,0.56473 1.332775,1.15206 0.813218,7.00271 2.078225,9.35201 0.429199,0.83581 0.971345,1.51349 z"
           style="stroke-width:1.15658"
           id="path63" />
        <path
           d="m 106.08078,122.24969 q -2.05563,2.71073 -6.166904,2.71073 -5.014848,0 -7.522272,-3.00439 -1.084291,-1.2876 -1.490901,-2.86886 -0.225894,-0.94875 -0.790629,-1.44572 -0.564735,-0.51955 -1.400543,-0.92616 1.626437,-0.74545 2.326709,-2.80109 0.74545,-2.16858 2.484834,-3.13993 1.874921,-1.01652 4.133861,-1.0617 2.258941,-0.0678 3.343235,-0.15813 1.08429,-0.0904 1.9201,-0.29366 1.55867,-0.36143 2.43965,-1.33277 v -3.38841 q 0,-2.23635 -0.92616,-3.27547 -0.90358,-1.03911 -2.7785,-1.03911 -1.852331,0 -2.755907,0.70027 -0.880987,0.67768 -0.880987,1.82974 0,1.76198 1.807152,1.7168 -0.36143,1.76197 -1.89751,1.76197 -0.451788,0 -0.880987,-0.15812 v 0.0678 q 0,0.58733 0.542146,0.74546 -0.564735,0.85839 -1.89751,0.8358 -1.332775,-0.0226 -2.078225,-1.42313 -0.338841,0.0904 -0.790629,0.0904 -0.429199,0 -0.971345,-0.29366 -0.519556,-0.29367 -0.835808,-0.81322 1.129471,-0.67768 1.377954,-2.10082 0.271073,-1.73938 2.778497,-3.523944 3.02698,-2.145994 7.725579,-2.145994 7.79334,0 9.51014,4.788958 0.56473,1.60384 0.56473,3.79502 v 1.82974 q 0,1.10688 0.54215,1.80715 0.56473,0.70027 1.89751,1.15206 -1.42314,0.65509 -1.82974,1.17465 -0.60992,0.79063 -0.60992,1.80715 v 6.77682 q 0.65509,1.69421 1.87492,1.69421 0.76804,0 1.26501,-0.38402 0.31625,0.4292 0.31625,1.08429 0,0.6325 -0.65509,1.21983 -0.63251,0.58732 -1.9201,0.58732 -1.2876,0 -2.39448,-0.72286 -0.97134,0.72286 -1.73938,0.72286 -0.74545,0 -1.31019,-0.15812 -0.54214,-0.13554 -1.01652,-0.45179 -1.0617,-0.70027 -1.31019,-1.98787 z m 1.42314,-3.8402 q 1.31018,-0.51956 1.37795,-4.99226 0,-0.94875 0,-2.16858 0,-1.21983 -0.0226,-2.07823 0,-0.88098 -0.0226,-1.67161 -0.0904,-2.84627 -0.51956,-3.38841 -0.42919,-0.56474 -0.81321,-0.74545 z m -8.335495,-1.60385 q 0,0.94876 0.203305,1.85233 0.203305,0.90358 0.609914,1.58126 0.903576,1.42314 2.552606,1.42314 1.24241,0 2.05563,-1.01653 0.76804,-0.99393 0.76804,-2.5526 v -7.36415 q -1.44572,0.83581 -3.70466,1.15206 -2.484835,0.38402 -2.484835,4.92449 z m -3.38841,5.08262 q 0.225894,-0.15813 0.225894,-0.40661 0,-0.33884 -0.316252,-0.94875 -1.12947,-2.07823 -1.12947,-3.411 0,-1.33278 0.09036,-1.9201 0.112947,-0.58733 0.271072,-0.99394 0.180716,-0.4292 0.38402,-0.74545 0.225894,-0.31625 0.38402,-0.56473 0.293662,-0.51956 0.293662,-0.70027 0,-0.20331 -0.203304,-0.33885 -0.926166,0.4292 -1.355365,1.01653 -0.768039,1.03911 -1.12947,2.68814 -0.09036,0.47437 -1.581258,1.15206 1.445722,0.65509 1.581258,1.15206 0.76804,2.68813 2.484835,4.02091 z"
           style="stroke-width:1.15658"
           id="path65" />
        <path
           d="m 123.42945,124.12461 q -1.03912,0.72286 -2.37189,0.72286 -1.33277,0 -1.94269,-0.60991 -0.58732,-0.63251 -0.58732,-1.19724 0,-0.74545 0.24848,-1.08429 0.49697,0.38402 1.26501,0.38402 1.44572,0 1.87492,-1.40055 v -6.84458 q 0,-1.03912 -0.40661,-1.53608 -0.72286,-0.88099 -2.3493,-1.67162 2.75591,-1.26501 2.75591,-3.88538 v -2.37189 q 0,-1.92009 -1.31019,-2.07822 -0.38402,-0.0452 -0.97134,-0.0452 -0.58733,0 -1.08429,0.38402 -0.31626,-0.4292 -0.31626,-0.88099 0,-0.47437 0.2259,-1.03911 0.24848,-0.58732 0.74545,-1.10688 1.17465,-1.219827 2.73332,-1.219827 1.58126,0 2.62037,0.496966 1.24242,-1.400543 2.66555,-1.400543 2.21376,0 2.21376,2.439654 v 3.09475 q 2.25894,-5.556993 7.18343,-5.556993 2.21376,0 3.59171,1.355364 1.42314,1.377949 1.42314,3.817609 v 0.31625 q 0,0.15813 -0.0452,0.65509 -0.0452,0.47438 0.0226,0.97135 0.0904,0.49697 0.27107,0.81322 0.24848,0.47438 0.92617,0.74545 -0.15813,0.60991 -0.74545,1.10688 -0.56474,0.47438 -1.26501,0.47438 h -0.4292 q -0.88099,1.10688 -2.46224,1.55867 -0.45179,0.13553 -0.99394,0.13553 -0.51955,0 -0.92616,-0.22589 -0.38402,-0.24849 -0.4292,-0.51956 0.4292,-0.2033 0.4292,-0.81322 v -0.11294 q -0.18072,0.0452 -0.31626,0.0452 h -0.22589 q -0.74545,0 -1.35536,-0.56473 -0.58733,-0.56474 -0.76804,-1.42313 1.21982,0.0452 2.1234,-0.90358 0.81322,-0.83581 0.81322,-1.71679 0,-2.07823 -1.80715,-2.07823 -1.55867,0 -3.13993,2.48484 -1.4909,2.28153 -1.87492,4.72118 v 12.22087 q 0.24848,0.79063 0.76804,1.17465 0.51956,0.38402 1.42313,0.38402 0.90358,0 1.40054,-0.38402 0.24849,0.33884 0.24849,0.99393 0,0.65509 -0.60992,1.2876 -0.58732,0.60991 -2.01045,0.60991 -1.40055,0 -2.68814,-0.76804 -0.90358,0.76804 -2.19117,0.76804 -1.2876,0 -2.3493,-0.72286 z m 1.94269,-10.70738 q 0.0226,-0.76804 0.0226,-1.28759 0.0226,-0.51956 0.0226,-0.83581 v -0.60992 q 0,-0.33884 -0.0226,-0.85839 0,-0.54215 -0.0226,-1.19724 0,-0.67768 -0.0226,-1.31019 -0.13554,-2.34929 -0.51956,-3.00439 -0.36143,-0.67768 -0.74545,-0.92616 v 1.46831 q 0,3.79502 -0.18071,4.4727 -0.15813,0.65509 -0.54215,0.99393 -0.36143,0.31626 -1.08429,0.56474 1.35536,0.47438 1.53608,1.15206 0.27107,1.08429 0.27107,4.87931 v 1.46831 q 1.03911,-0.67768 1.17465,-2.75591 0.11295,-1.46831 0.11295,-2.21376 z"
           style="stroke-width:1.15658"
           id="path67" />
        <path
           d="m 165.24243,124.84747 q -2.30411,0 -3.59171,-2.48483 -1.60385,1.85233 -4.29199,2.43965 -0.79063,0.15813 -1.55867,0.15813 -4.74377,0 -7.36414,-3.00439 -2.39448,-2.7785 -2.68814,-7.86111 -0.0452,-0.99394 -0.45179,-1.5135 -0.67768,-0.85839 -2.30412,-1.64902 2.66555,-1.21983 2.7785,-3.74984 0.11294,-2.53002 0.88098,-4.31458 0.79063,-1.80715 2.10082,-2.959211 2.50742,-2.168583 7.00271,-2.168583 2.46225,0 4.2694,1.265007 0.60992,0.429199 1.03911,0.993934 v -4.856722 q 0,-2.575192 -2.10081,-2.575192 -0.76804,0 -1.26501,0.38402 -0.31625,-0.429199 -0.31625,-0.880987 0,-0.474378 0.2259,-0.903576 0.24848,-0.429199 0.74545,-0.790629 1.0617,-0.76804 2.68814,-0.76804 1.62643,0 2.53001,0.203305 1.24242,-1.558669 2.80108,-1.558669 2.32671,0 2.32671,2.439655 v 17.235718 q 0,1.71679 2.75591,2.9818 -2.75591,1.24242 -2.75591,2.95921 v 6.77682 q 0.6551,1.69421 1.87492,1.69421 0.76804,0 1.26501,-0.38402 0.31625,0.4292 0.31625,1.08429 0,0.6325 -0.65509,1.21983 -0.6325,0.58732 -1.9201,0.58732 -1.2876,0 -2.39448,-0.72286 -0.97134,0.72286 -1.94269,0.72286 z m -2.01045,-6.43798 q 1.12947,-0.4292 1.21983,-2.68814 0.0226,-0.51955 0.0226,-1.265 0.0226,-0.76804 0.0452,-1.69421 0.0226,-0.92617 0.0226,-1.87492 l 0.0452,-1.80715 q 0,-0.88099 0,-1.53608 0.0226,-0.67768 0.0226,-1.0617 v -0.33885 q 0,-0.0678 -0.0226,-0.6325 0,-0.58732 -0.0226,-1.42313 0,-0.8584 -0.0226,-1.82974 l -0.0452,-1.89751 q -0.0452,-2.078228 -0.15812,-2.642963 -0.18072,-1.12947 -1.10688,-1.558669 z m -6.23468,-17.37125 q -3.6143,0 -3.6143,5.30851 v 9.89416 q 0,4.13386 2.73331,5.12779 0.76804,0.29367 1.5135,0.29367 0.76803,0 1.37795,-0.29367 0.6325,-0.31625 1.08429,-0.81322 0.97134,-1.10688 0.97134,-2.64296 v -11.56577 q 0,-4.15645 -2.53001,-5.03744 -0.74545,-0.27107 -1.53608,-0.27107 z m -7.29638,17.37125 q 0.31626,-0.24848 0.31626,-0.56473 0,-0.49697 -0.20331,-1.26501 -0.92616,-3.54654 -0.92616,-4.9019 0,-1.37795 0.0904,-2.16858 0.0904,-0.79063 0.24849,-1.55867 0.29366,-1.62644 0.58732,-2.75591 0.20331,-0.76804 0.20331,-1.03911 0,-0.54215 -0.31626,-0.79063 -0.94875,1.12947 -1.44572,3.04957 -0.49696,1.9201 -0.81322,3.36582 -0.11294,0.58732 -1.33277,1.15206 1.21983,0.56473 1.33277,1.15206 0.83581,3.81761 1.37796,4.83413 0.54214,1.01652 0.88098,1.4909 z"
           style="stroke-width:1.15658"
           id="path69" />
        <path
           d="m 179.54153,123.85354 q -1.53608,1.46831 -2.95922,1.46831 -0.79063,0 -1.08429,-0.58733 0.51956,-0.51955 0.51956,-1.03911 0,-0.51955 -0.15813,-0.79063 l -0.29366,-0.51955 0.36143,0.67768 q -0.54215,-0.24849 -0.83581,-0.83581 -0.29366,-0.58732 -0.29366,-1.42313 0,-0.8584 0.94876,-1.94269 -0.45179,-0.6325 -0.45179,-1.40054 0,-0.76804 0.24848,-1.26501 0.27107,-0.51956 0.67768,-0.92617 0.90358,-0.85839 1.9201,-0.85839 0.67768,0 0.97135,0.47437 -0.60992,0.6551 -0.60992,2.07823 0,1.40054 0.47438,2.39448 0.49697,0.99393 1.33278,1.6942 1.76197,1.4909 4.33716,1.4909 2.86885,0 3.97574,-2.10081 0.31625,-0.63251 0.31625,-1.26501 0,-0.65509 -0.29366,-1.15206 -0.29367,-0.51955 -0.76804,-0.99393 -0.79063,-0.76804 -2.41707,-1.76198 -1.55867,-1.10688 -3.68207,-1.10688 -1.37796,0 -1.85233,0.2259 0.29366,-0.67768 0.29366,-1.35537 0,-0.67768 -0.90358,-1.46831 -0.90357,-0.81322 -1.62644,-1.62644 -0.70027,-0.81321 -1.12947,-1.62643 -0.85839,-1.53608 -0.85839,-3.25288 0,-1.71679 0.70027,-3.02698 0.72286,-1.33277 2.01046,-2.281527 2.68813,-2.010457 6.88976,-2.010457 2.03305,0 2.7785,0.180716 0.76804,0.180715 1.21983,0.338841 0.60991,0.225894 1.4909,0.225894 0.88099,0 1.21983,-0.38402 0.36143,-0.38402 0.36143,-0.700272 0,-0.338841 -0.0678,-0.519556 0.13554,-0.04518 0.40661,-0.04518 0.27107,0 0.60991,0.158126 0.36143,0.158126 0.63251,0.429199 0.54214,0.609914 0.54214,1.310185 0,0.677682 -0.27107,1.039113 0.6325,0.587327 0.6325,1.671617 0,1.08429 -0.90357,1.82974 0.2033,0.40661 0.2033,0.99393 0,0.58733 -0.6325,1.12947 -0.63251,0.54215 -1.19724,0.54215 -0.97135,0 -1.31019,-0.24848 0.29366,-0.72286 0.29366,-1.55867 0,-0.8584 -0.45178,-1.62644 -0.45179,-0.76804 -1.15206,-1.24242 -1.31019,-0.90357 -3.11734,-0.90357 -2.28153,0 -3.07216,1.44572 -0.24848,0.45179 -0.24848,0.99393 0,0.51956 0.13553,0.97135 0.15813,0.4292 0.49697,0.88098 0.65509,0.88099 1.85233,1.67162 1.55867,1.01652 2.16858,1.01652 1.31019,0 2.28153,-0.6325 -0.27107,1.08429 -0.27107,1.51349 0,0.65509 1.03911,1.51349 2.91404,2.01046 3.97574,3.68207 1.01652,1.62644 1.01652,3.61431 0,1.98787 -0.88098,3.411 -0.88099,1.40054 -2.39448,2.41706 -3.13993,2.10082 -7.61263,2.10082 -3.04957,0 -5.5344,-1.10688 z m -0.79063,-20.6919 q -0.6551,0.31626 -0.6551,1.76198 0,1.42313 0.92617,2.73331 0.92616,1.2876 2.93662,2.91404 0.47438,0.36143 0.47438,0.70027 0,0.51956 -0.0904,0.83581 0.27107,-0.0678 0.94876,-0.13554 1.64902,-0.15812 4.08868,1.53608 3.88538,2.39448 3.88538,5.03744 0,0.99393 -0.27108,1.4909 0.81322,-0.15813 1.24242,-1.37796 0.11295,-0.36143 0.11295,-0.74545 0,-1.82974 -1.98787,-3.70466 -1.96528,-1.89751 -5.66994,-3.65948 -6.14432,-3.11734 -5.94101,-7.38674 z"
           style="stroke-width:1.15658"
           id="path71" />
        <path
           d="m 218.68897,117.57368 q 0.49696,-0.94875 1.82974,-0.94875 0.90357,0 1.40054,0.74545 0.40661,0.58732 0.40661,1.44572 0,0.83581 -0.4292,1.69421 -0.4292,0.85839 -1.17465,1.55866 -0.74545,0.70028 -1.71679,1.24242 -0.94876,0.54215 -2.03305,0.90358 -2.23635,0.74545 -4.65342,0.74545 -2.41706,0 -4.54047,-0.79063 -2.10081,-0.81322 -3.6143,-2.25894 -2.95921,-2.84627 -3.61431,-7.81593 -0.15812,-1.10689 -0.51955,-1.58126 -0.67768,-0.83581 -2.23635,-1.60385 1.96527,-0.88099 2.50742,-2.82368 0.15813,-0.54214 0.24848,-1.08429 0.56474,-3.97573 4.02092,-6.77682 3.34323,-2.710728 7.47709,-2.710728 4.29199,0 7.43191,3.026978 3.25288,3.11734 3.25288,7.65781 0,0.15813 -0.0226,0.31625 0,0.15813 0.0226,0.29366 0.0452,0.29367 0.36143,0.33885 0.40661,0.51955 0.40661,1.10688 0,1.35536 -1.44572,1.60384 -0.36143,0.0678 -1.12947,0.18072 l -12.74043,2.03305 v 2.16858 q 0,2.62037 1.58126,4.15645 1.4909,1.46831 3.77243,1.46831 2.41707,0 3.88538,-0.99393 1.37795,-0.94876 1.37795,-2.48484 0,-0.36143 -0.11294,-0.81322 z m -3.95315,-7.29637 v -6.32504 q 0,-1.4909 -0.58733,-2.19117 -1.03911,-1.19724 -2.05563,-1.19724 -1.01652,0 -1.69421,0.31625 -0.67768,0.29367 -1.17465,0.94876 -1.03911,1.37795 -1.03911,4.29199 v 5.21815 z m 3.34323,-0.56474 v -0.70027 q 0,-4.20163 -0.70027,-5.08262 -0.31625,-0.38402 -0.70027,-0.56473 v 6.57351 z m -13.57623,8.69692 q 0.31625,-0.24848 0.31625,-0.56473 0,-0.49697 -0.2033,-1.26501 -0.92617,-3.54654 -0.92617,-4.92449 0,-1.40054 0.0904,-2.16858 0.0904,-0.79063 0.24848,-1.58126 0.27107,-1.53608 0.58733,-2.71073 0.2033,-0.76804 0.2033,-1.03911 0,-0.54215 -0.31625,-0.79063 -0.94876,1.12947 -1.44572,3.02698 -0.49697,1.89751 -0.81322,3.34323 -0.11295,0.60991 -1.33278,1.17465 1.21983,0.56473 1.33278,1.12947 0.83581,3.81761 1.37795,4.85672 0.54215,1.03911 0.88099,1.51349 z"
           style="stroke-width:1.15658"
           id="path73" />
        <path
           d="m 241.02988,121.09763 q 0.4292,-0.45179 0.67768,-1.12947 0.24849,-0.70027 0.24849,-1.44572 0,-0.76804 -0.0904,-1.40054 0.15812,-0.33885 0.85839,-0.51956 0.70028,-0.20331 0.92617,-0.20331 0.8584,0 1.37795,0.6551 0.51956,0.6325 0.51956,1.78456 0,1.12947 -0.67768,2.23635 -0.65509,1.10688 -1.76198,1.96528 -2.46224,1.9201 -5.7377,1.9201 -6.23468,0 -8.26773,-4.72119 -0.74545,-1.73938 -0.74545,-4.35975 v -2.75591 q 0,-1.0617 -2.3267,-2.23635 2.3267,-1.33278 2.3267,-3.59172 v -2.66555 q 0,-2.57519 -2.10081,-2.57519 -0.76804,0 -1.26501,0.38402 -0.31625,-0.4292 -0.31625,-0.88098 0,-0.47438 0.15813,-1.01653 0.18071,-0.564733 0.60991,-1.016521 1.08429,-1.174649 3.36582,-0.813218 V 97.98867 q 0,-2.371888 1.19724,-4.17904 1.0617,-1.626437 1.87492,-1.626437 0.83581,0 1.2876,0.564735 0.38402,-1.784563 1.01652,-2.575192 0.6325,-0.790629 1.80715,-0.790629 v 9.419781 h 7.34156 q 0.18071,0.361431 0.18071,1.219832 0,0.8358 -0.65509,1.35536 -0.65509,0.49697 -1.58126,0.49697 h -5.28592 v 15.29302 q 0,3.93056 1.78457,4.60824 0.51955,0.18072 1.10688,0.18072 0.60991,0 1.15206,-0.20331 0.56473,-0.22589 0.99393,-0.65509 z m -10.50407,-2.68814 q 1.0617,-0.67768 1.19724,-2.82367 0.0904,-1.53608 0.0904,-2.39448 0.0226,-0.8584 0.0226,-1.37795 0.0226,-0.54215 0.0226,-0.83581 V 110.074 q 0,-0.65509 -0.0226,-1.67161 0,-1.03912 -0.0226,-2.23636 0,-1.21982 -0.0452,-2.3267 -0.0678,-2.66555 -0.2033,-3.25288 -0.27107,-1.310184 -1.03911,-1.807151 v 7.047891 q 0,3.13993 -0.11295,3.32065 -0.0904,0.18071 -0.15813,0.42919 -0.2033,0.67769 -1.53608,1.12947 1.35537,0.47438 1.53608,1.15206 0.27108,1.0843 0.27108,5.08262 z"
           style="stroke-width:1.15658"
           id="path75" />
        <path
           d="m 261.24739,121.09763 q 0.4292,-0.45179 0.67769,-1.12947 0.24848,-0.70027 0.24848,-1.44572 0,-0.76804 -0.0904,-1.40054 0.15813,-0.33885 0.8584,-0.51956 0.70027,-0.20331 0.92616,-0.20331 0.8584,0 1.37796,0.6551 0.51955,0.6325 0.51955,1.78456 0,1.12947 -0.67768,2.23635 -0.65509,1.10688 -1.76197,1.96528 -2.46225,1.9201 -5.73771,1.9201 -6.23468,0 -8.26772,-4.72119 -0.74545,-1.73938 -0.74545,-4.35975 v -2.75591 q 0,-1.0617 -2.32671,-2.23635 2.32671,-1.33278 2.32671,-3.59172 v -2.66555 q 0,-2.57519 -2.10082,-2.57519 -0.76804,0 -1.265,0.38402 -0.31626,-0.4292 -0.31626,-0.88098 0,-0.47438 0.15813,-1.01653 0.18072,-0.564733 0.60991,-1.016521 1.0843,-1.174649 3.36583,-0.813218 V 97.98867 q 0,-2.371888 1.19723,-4.17904 1.06171,-1.626437 1.87492,-1.626437 0.83581,0 1.2876,0.564735 0.38402,-1.784563 1.01652,-2.575192 0.63251,-0.790629 1.80716,-0.790629 v 9.419781 h 7.34155 q 0.18072,0.361431 0.18072,1.219832 0,0.8358 -0.65509,1.35536 -0.6551,0.49697 -1.58126,0.49697 h -5.28592 v 15.29302 q 0,3.93056 1.78456,4.60824 0.51956,0.18072 1.10688,0.18072 0.60991,0 1.15206,-0.20331 0.56473,-0.22589 0.99393,-0.65509 z m -10.50407,-2.68814 q 1.0617,-0.67768 1.19724,-2.82367 0.0904,-1.53608 0.0904,-2.39448 0.0226,-0.8584 0.0226,-1.37795 0.0226,-0.54215 0.0226,-0.83581 V 110.074 q 0,-0.65509 -0.0226,-1.67161 0,-1.03912 -0.0226,-2.23636 0,-1.21982 -0.0452,-2.3267 -0.0678,-2.66555 -0.20331,-3.25288 -0.27107,-1.310184 -1.03911,-1.807151 v 7.047891 q 0,3.13993 -0.11295,3.32065 -0.0904,0.18071 -0.15812,0.42919 -0.20331,0.67769 -1.53608,1.12947 1.35536,0.47438 1.53608,1.15206 0.27107,1.0843 0.27107,5.08262 z"
           style="stroke-width:1.15658"
           id="path77" />
        <path
           d="m 282.68474,122.24969 q -2.05564,2.71073 -6.16691,2.71073 -5.01485,0 -7.52227,-3.00439 -1.08429,-1.2876 -1.4909,-2.86886 -0.2259,-0.94875 -0.79063,-1.44572 -0.56474,-0.51955 -1.40055,-0.92616 1.62644,-0.74545 2.32671,-2.80109 0.74545,-2.16858 2.48484,-3.13993 1.87492,-1.01652 4.13386,-1.0617 2.25894,-0.0678 3.34323,-0.15813 1.08429,-0.0904 1.9201,-0.29366 1.55867,-0.36143 2.43965,-1.33277 v -3.38841 q 0,-2.23635 -0.92616,-3.27547 -0.90358,-1.03911 -2.7785,-1.03911 -1.85233,0 -2.75591,0.70027 -0.88098,0.67768 -0.88098,1.82974 0,1.76198 1.80715,1.7168 -0.36143,1.76197 -1.89751,1.76197 -0.45179,0 -0.88099,-0.15812 v 0.0678 q 0,0.58733 0.54215,0.74546 -0.56474,0.85839 -1.89751,0.8358 -1.33278,-0.0226 -2.07823,-1.42313 -0.33884,0.0904 -0.79062,0.0904 -0.4292,0 -0.97135,-0.29366 -0.51956,-0.29367 -0.83581,-0.81322 1.12947,-0.67768 1.37796,-2.10082 0.27107,-1.73938 2.77849,-3.523944 3.02698,-2.145994 7.72558,-2.145994 7.79334,0 9.51014,4.788958 0.56473,1.60384 0.56473,3.79502 v 1.82974 q 0,1.10688 0.54215,1.80715 0.56473,0.70027 1.89751,1.15206 -1.42313,0.65509 -1.82974,1.17465 -0.60992,0.79063 -0.60992,1.80715 v 6.77682 q 0.6551,1.69421 1.87492,1.69421 0.76804,0 1.26501,-0.38402 0.31625,0.4292 0.31625,1.08429 0,0.6325 -0.65509,1.21983 -0.6325,0.58732 -1.9201,0.58732 -1.2876,0 -2.39448,-0.72286 -0.97134,0.72286 -1.73938,0.72286 -0.74545,0 -1.31019,-0.15812 -0.54214,-0.13554 -1.01652,-0.45179 -1.0617,-0.70027 -1.31018,-1.98787 z m 1.42313,-3.8402 q 1.31018,-0.51956 1.37795,-4.99226 0,-0.94875 0,-2.16858 0,-1.21983 -0.0226,-2.07823 0,-0.88098 -0.0226,-1.67161 -0.0904,-2.84627 -0.51955,-3.38841 -0.4292,-0.56474 -0.81322,-0.74545 z m -8.33549,-1.60385 q 0,0.94876 0.2033,1.85233 0.20331,0.90358 0.60992,1.58126 0.90357,1.42314 2.5526,1.42314 1.24242,0 2.05563,-1.01653 0.76804,-0.99393 0.76804,-2.5526 v -7.36415 q -1.44572,0.83581 -3.70466,1.15206 -2.48483,0.38402 -2.48483,4.92449 z m -3.38841,5.08262 q 0.22589,-0.15813 0.22589,-0.40661 0,-0.33884 -0.31625,-0.94875 -1.12947,-2.07823 -1.12947,-3.411 0,-1.33278 0.0904,-1.9201 0.11294,-0.58733 0.27107,-0.99394 0.18072,-0.4292 0.38402,-0.74545 0.22589,-0.31625 0.38402,-0.56473 0.29366,-0.51956 0.29366,-0.70027 0,-0.20331 -0.2033,-0.33885 -0.92617,0.4292 -1.35537,1.01653 -0.76804,1.03911 -1.12947,2.68814 -0.0904,0.47437 -1.58126,1.15206 1.44573,0.65509 1.58126,1.15206 0.76804,2.68813 2.48484,4.02091 z"
           style="stroke-width:1.15658"
           id="path79" />
      </g>
    </g>
  </g>
</svg>
